<mxfile host="app.diagrams.net" modified="2024-01-07T15:14:31.568Z" agent="Mozilla/5.0 (Windows NT 10.0; Win64; x64) AppleWebKit/537.36 (KHTML, like Gecko) Chrome/120.0.0.0 Safari/537.36" etag="FIddCACW9Vwyi7Dgw20k" version="22.1.16" type="device">
  <diagram name="第 1 页" id="Am0wH2o192Em77mpzdUW">
    <mxGraphModel dx="1403" dy="1284" grid="1" gridSize="10" guides="1" tooltips="1" connect="1" arrows="1" fold="1" page="1" pageScale="1" pageWidth="827" pageHeight="1169" math="0" shadow="0">
      <root>
        <mxCell id="0" />
        <mxCell id="1" parent="0" />
        <mxCell id="yHAYQrB9C3ZelxVDnKD3-46" value="" style="rounded=0;whiteSpace=wrap;html=1;fontSize=16;fillColor=none;dashed=1;dashPattern=8 8;" parent="1" vertex="1">
          <mxGeometry x="2350" y="240" width="280" height="210" as="geometry" />
        </mxCell>
        <mxCell id="yHAYQrB9C3ZelxVDnKD3-29" value="" style="rounded=0;whiteSpace=wrap;html=1;fontSize=16;fillColor=none;dashed=1;dashPattern=8 8;" parent="1" vertex="1">
          <mxGeometry x="920" y="1360" width="250" height="620" as="geometry" />
        </mxCell>
        <mxCell id="yHAYQrB9C3ZelxVDnKD3-30" value="" style="rounded=0;whiteSpace=wrap;html=1;fontSize=16;fillColor=none;dashed=1;dashPattern=8 8;" parent="1" vertex="1">
          <mxGeometry x="1370" y="1360" width="250" height="530" as="geometry" />
        </mxCell>
        <mxCell id="Qdl7iLAGfhI_xIcnYmAV-102" style="edgeStyle=orthogonalEdgeStyle;rounded=0;orthogonalLoop=1;jettySize=auto;html=1;exitX=1;exitY=0.5;exitDx=0;exitDy=0;entryX=0;entryY=0.5;entryDx=0;entryDy=0;" parent="1" source="Qdl7iLAGfhI_xIcnYmAV-96" target="Qdl7iLAGfhI_xIcnYmAV-97" edge="1">
          <mxGeometry relative="1" as="geometry">
            <Array as="points">
              <mxPoint x="1810" y="940" />
              <mxPoint x="1810" y="670" />
            </Array>
          </mxGeometry>
        </mxCell>
        <mxCell id="Qdl7iLAGfhI_xIcnYmAV-96" value="" style="rounded=0;whiteSpace=wrap;html=1;fillColor=none;dashed=1;" parent="1" vertex="1">
          <mxGeometry x="1530" y="810" width="230" height="260" as="geometry" />
        </mxCell>
        <mxCell id="Qdl7iLAGfhI_xIcnYmAV-6" style="edgeStyle=orthogonalEdgeStyle;rounded=0;orthogonalLoop=1;jettySize=auto;html=1;exitX=1;exitY=0.5;exitDx=0;exitDy=0;entryX=0;entryY=0.5;entryDx=0;entryDy=0;" parent="1" source="Qdl7iLAGfhI_xIcnYmAV-1" target="Qdl7iLAGfhI_xIcnYmAV-5" edge="1">
          <mxGeometry relative="1" as="geometry" />
        </mxCell>
        <mxCell id="Qdl7iLAGfhI_xIcnYmAV-50" style="edgeStyle=orthogonalEdgeStyle;rounded=0;orthogonalLoop=1;jettySize=auto;html=1;exitX=1;exitY=0.5;exitDx=0;exitDy=0;entryX=0;entryY=0.5;entryDx=0;entryDy=0;" parent="1" source="Qdl7iLAGfhI_xIcnYmAV-1" target="Qdl7iLAGfhI_xIcnYmAV-8" edge="1">
          <mxGeometry relative="1" as="geometry" />
        </mxCell>
        <mxCell id="Qdl7iLAGfhI_xIcnYmAV-51" style="edgeStyle=orthogonalEdgeStyle;rounded=0;orthogonalLoop=1;jettySize=auto;html=1;exitX=1;exitY=0.5;exitDx=0;exitDy=0;entryX=0;entryY=0.5;entryDx=0;entryDy=0;" parent="1" source="Qdl7iLAGfhI_xIcnYmAV-1" target="Qdl7iLAGfhI_xIcnYmAV-7" edge="1">
          <mxGeometry relative="1" as="geometry" />
        </mxCell>
        <mxCell id="Qdl7iLAGfhI_xIcnYmAV-1" value="&lt;font style=&quot;font-size: 16px;&quot;&gt;&lt;b&gt;m_render_system&lt;/b&gt;&lt;/font&gt;" style="rounded=1;whiteSpace=wrap;html=1;fillColor=#d5e8d4;strokeColor=#82b366;" parent="1" vertex="1">
          <mxGeometry x="620" y="1040" width="210" height="60" as="geometry" />
        </mxCell>
        <mxCell id="Qdl7iLAGfhI_xIcnYmAV-2" value="&lt;font style=&quot;font-size: 16px;&quot;&gt;&lt;b&gt;Class&lt;/b&gt;&lt;/font&gt;" style="rounded=1;whiteSpace=wrap;html=1;fillColor=#f5f5f5;strokeColor=#666666;fontColor=#333333;" parent="1" vertex="1">
          <mxGeometry x="-570" y="950" width="150" height="50" as="geometry" />
        </mxCell>
        <mxCell id="Qdl7iLAGfhI_xIcnYmAV-3" value="&lt;font style=&quot;font-size: 16px;&quot;&gt;&lt;b&gt;Functions&lt;/b&gt;&lt;/font&gt;" style="rounded=1;whiteSpace=wrap;html=1;fillColor=#fff2cc;strokeColor=#d6b656;" parent="1" vertex="1">
          <mxGeometry x="-570" y="1020" width="150" height="50" as="geometry" />
        </mxCell>
        <mxCell id="Qdl7iLAGfhI_xIcnYmAV-4" value="&lt;font style=&quot;font-size: 16px;&quot;&gt;&lt;b&gt;Global Variables&lt;/b&gt;&lt;/font&gt;" style="rounded=1;whiteSpace=wrap;html=1;fillColor=#dae8fc;strokeColor=#6c8ebf;" parent="1" vertex="1">
          <mxGeometry x="-570" y="1090" width="150" height="50" as="geometry" />
        </mxCell>
        <mxCell id="Qdl7iLAGfhI_xIcnYmAV-57" style="edgeStyle=orthogonalEdgeStyle;rounded=0;orthogonalLoop=1;jettySize=auto;html=1;exitX=1;exitY=0.5;exitDx=0;exitDy=0;entryX=0.5;entryY=0;entryDx=0;entryDy=0;" parent="1" source="Qdl7iLAGfhI_xIcnYmAV-5" target="Qdl7iLAGfhI_xIcnYmAV-56" edge="1">
          <mxGeometry relative="1" as="geometry">
            <Array as="points">
              <mxPoint x="1210" y="1070" />
              <mxPoint x="1210" y="110" />
              <mxPoint x="1645" y="110" />
            </Array>
          </mxGeometry>
        </mxCell>
        <mxCell id="Qdl7iLAGfhI_xIcnYmAV-5" value="&lt;font style=&quot;font-size: 16px;&quot;&gt;&lt;b&gt;Tick()&lt;/b&gt;&lt;/font&gt;" style="rounded=1;whiteSpace=wrap;html=1;fillColor=#fff2cc;strokeColor=#d6b656;" parent="1" vertex="1">
          <mxGeometry x="1020" y="1040" width="120" height="60" as="geometry" />
        </mxCell>
        <mxCell id="Qdl7iLAGfhI_xIcnYmAV-7" value="&lt;font style=&quot;font-size: 16px;&quot;&gt;&lt;b&gt;clear()&lt;/b&gt;&lt;/font&gt;" style="rounded=1;whiteSpace=wrap;html=1;fillColor=#fff2cc;strokeColor=#d6b656;" parent="1" vertex="1">
          <mxGeometry x="1020" y="950" width="120" height="60" as="geometry" />
        </mxCell>
        <mxCell id="Qdl7iLAGfhI_xIcnYmAV-8" value="&lt;font style=&quot;font-size: 16px;&quot;&gt;&lt;b&gt;initialize()&lt;/b&gt;&lt;/font&gt;" style="rounded=1;whiteSpace=wrap;html=1;fillColor=#fff2cc;strokeColor=#d6b656;" parent="1" vertex="1">
          <mxGeometry x="1021" y="861" width="120" height="60" as="geometry" />
        </mxCell>
        <mxCell id="Qdl7iLAGfhI_xIcnYmAV-13" style="edgeStyle=orthogonalEdgeStyle;rounded=0;orthogonalLoop=1;jettySize=auto;html=1;exitX=1;exitY=0.5;exitDx=0;exitDy=0;entryX=0;entryY=0.5;entryDx=0;entryDy=0;" parent="1" source="Qdl7iLAGfhI_xIcnYmAV-11" target="Qdl7iLAGfhI_xIcnYmAV-1" edge="1">
          <mxGeometry relative="1" as="geometry" />
        </mxCell>
        <mxCell id="Qdl7iLAGfhI_xIcnYmAV-27" style="edgeStyle=orthogonalEdgeStyle;rounded=0;orthogonalLoop=1;jettySize=auto;html=1;exitX=1;exitY=0.5;exitDx=0;exitDy=0;entryX=0;entryY=0.5;entryDx=0;entryDy=0;" parent="1" source="Qdl7iLAGfhI_xIcnYmAV-11" target="Qdl7iLAGfhI_xIcnYmAV-24" edge="1">
          <mxGeometry relative="1" as="geometry" />
        </mxCell>
        <mxCell id="Qdl7iLAGfhI_xIcnYmAV-28" style="edgeStyle=orthogonalEdgeStyle;rounded=0;orthogonalLoop=1;jettySize=auto;html=1;exitX=1;exitY=0.5;exitDx=0;exitDy=0;entryX=0;entryY=0.5;entryDx=0;entryDy=0;" parent="1" source="Qdl7iLAGfhI_xIcnYmAV-11" target="Qdl7iLAGfhI_xIcnYmAV-23" edge="1">
          <mxGeometry relative="1" as="geometry" />
        </mxCell>
        <mxCell id="Qdl7iLAGfhI_xIcnYmAV-29" style="edgeStyle=orthogonalEdgeStyle;rounded=0;orthogonalLoop=1;jettySize=auto;html=1;exitX=1;exitY=0.5;exitDx=0;exitDy=0;entryX=0;entryY=0.5;entryDx=0;entryDy=0;" parent="1" source="Qdl7iLAGfhI_xIcnYmAV-11" target="Qdl7iLAGfhI_xIcnYmAV-22" edge="1">
          <mxGeometry relative="1" as="geometry" />
        </mxCell>
        <mxCell id="Qdl7iLAGfhI_xIcnYmAV-30" style="edgeStyle=orthogonalEdgeStyle;rounded=0;orthogonalLoop=1;jettySize=auto;html=1;exitX=1;exitY=0.5;exitDx=0;exitDy=0;entryX=0;entryY=0.5;entryDx=0;entryDy=0;" parent="1" source="Qdl7iLAGfhI_xIcnYmAV-11" target="Qdl7iLAGfhI_xIcnYmAV-21" edge="1">
          <mxGeometry relative="1" as="geometry" />
        </mxCell>
        <mxCell id="Qdl7iLAGfhI_xIcnYmAV-31" style="edgeStyle=orthogonalEdgeStyle;rounded=0;orthogonalLoop=1;jettySize=auto;html=1;exitX=1;exitY=0.5;exitDx=0;exitDy=0;entryX=0;entryY=0.5;entryDx=0;entryDy=0;" parent="1" source="Qdl7iLAGfhI_xIcnYmAV-11" target="Qdl7iLAGfhI_xIcnYmAV-20" edge="1">
          <mxGeometry relative="1" as="geometry" />
        </mxCell>
        <mxCell id="Qdl7iLAGfhI_xIcnYmAV-32" style="edgeStyle=orthogonalEdgeStyle;rounded=0;orthogonalLoop=1;jettySize=auto;html=1;exitX=1;exitY=0.5;exitDx=0;exitDy=0;entryX=0;entryY=0.5;entryDx=0;entryDy=0;" parent="1" source="Qdl7iLAGfhI_xIcnYmAV-11" target="Qdl7iLAGfhI_xIcnYmAV-14" edge="1">
          <mxGeometry relative="1" as="geometry" />
        </mxCell>
        <mxCell id="Qdl7iLAGfhI_xIcnYmAV-33" style="edgeStyle=orthogonalEdgeStyle;rounded=0;orthogonalLoop=1;jettySize=auto;html=1;exitX=1;exitY=0.5;exitDx=0;exitDy=0;entryX=0;entryY=0.5;entryDx=0;entryDy=0;" parent="1" source="Qdl7iLAGfhI_xIcnYmAV-11" target="Qdl7iLAGfhI_xIcnYmAV-19" edge="1">
          <mxGeometry relative="1" as="geometry" />
        </mxCell>
        <mxCell id="Qdl7iLAGfhI_xIcnYmAV-34" style="edgeStyle=orthogonalEdgeStyle;rounded=0;orthogonalLoop=1;jettySize=auto;html=1;exitX=1;exitY=0.5;exitDx=0;exitDy=0;entryX=0;entryY=0.5;entryDx=0;entryDy=0;" parent="1" source="Qdl7iLAGfhI_xIcnYmAV-11" target="Qdl7iLAGfhI_xIcnYmAV-25" edge="1">
          <mxGeometry relative="1" as="geometry">
            <Array as="points">
              <mxPoint x="485" y="540" />
              <mxPoint x="485" y="140" />
            </Array>
          </mxGeometry>
        </mxCell>
        <mxCell id="Qdl7iLAGfhI_xIcnYmAV-36" style="edgeStyle=orthogonalEdgeStyle;rounded=0;orthogonalLoop=1;jettySize=auto;html=1;exitX=0.25;exitY=1;exitDx=0;exitDy=0;entryX=0;entryY=0.5;entryDx=0;entryDy=0;" parent="1" source="Qdl7iLAGfhI_xIcnYmAV-11" target="Qdl7iLAGfhI_xIcnYmAV-35" edge="1">
          <mxGeometry relative="1" as="geometry" />
        </mxCell>
        <mxCell id="Qdl7iLAGfhI_xIcnYmAV-38" style="edgeStyle=orthogonalEdgeStyle;rounded=0;orthogonalLoop=1;jettySize=auto;html=1;exitX=0.25;exitY=1;exitDx=0;exitDy=0;entryX=0;entryY=0.5;entryDx=0;entryDy=0;" parent="1" source="Qdl7iLAGfhI_xIcnYmAV-11" target="Qdl7iLAGfhI_xIcnYmAV-37" edge="1">
          <mxGeometry relative="1" as="geometry" />
        </mxCell>
        <mxCell id="Qdl7iLAGfhI_xIcnYmAV-11" value="&lt;b&gt;&lt;font style=&quot;font-size: 16px;&quot;&gt;g_runtime_global_context&lt;/font&gt;&lt;/b&gt;" style="rounded=1;whiteSpace=wrap;html=1;fillColor=#dae8fc;strokeColor=#6c8ebf;" parent="1" vertex="1">
          <mxGeometry x="140" y="510" width="210" height="60" as="geometry" />
        </mxCell>
        <mxCell id="Qdl7iLAGfhI_xIcnYmAV-14" value="&lt;font style=&quot;font-size: 16px;&quot;&gt;&lt;b&gt;m_logger_system&lt;/b&gt;&lt;/font&gt;" style="rounded=1;whiteSpace=wrap;html=1;fillColor=#d5e8d4;strokeColor=#82b366;" parent="1" vertex="1">
          <mxGeometry x="620" y="329" width="210" height="60" as="geometry" />
        </mxCell>
        <mxCell id="Qdl7iLAGfhI_xIcnYmAV-16" style="edgeStyle=orthogonalEdgeStyle;rounded=0;orthogonalLoop=1;jettySize=auto;html=1;exitX=1;exitY=0.5;exitDx=0;exitDy=0;entryX=0;entryY=0.5;entryDx=0;entryDy=0;" parent="1" source="Qdl7iLAGfhI_xIcnYmAV-15" target="Qdl7iLAGfhI_xIcnYmAV-11" edge="1">
          <mxGeometry relative="1" as="geometry" />
        </mxCell>
        <mxCell id="Qdl7iLAGfhI_xIcnYmAV-41" style="edgeStyle=orthogonalEdgeStyle;rounded=0;orthogonalLoop=1;jettySize=auto;html=1;exitX=0.25;exitY=1;exitDx=0;exitDy=0;entryX=0;entryY=0.5;entryDx=0;entryDy=0;" parent="1" source="Qdl7iLAGfhI_xIcnYmAV-15" target="Qdl7iLAGfhI_xIcnYmAV-40" edge="1">
          <mxGeometry relative="1" as="geometry" />
        </mxCell>
        <mxCell id="Qdl7iLAGfhI_xIcnYmAV-15" value="&lt;font style=&quot;font-size: 16px;&quot;&gt;&lt;b&gt;engine.h/cpp&lt;/b&gt;&lt;/font&gt;" style="rounded=1;whiteSpace=wrap;html=1;fillColor=#e1d5e7;strokeColor=#9673a6;" parent="1" vertex="1">
          <mxGeometry x="-200" y="510" width="150" height="60" as="geometry" />
        </mxCell>
        <mxCell id="Qdl7iLAGfhI_xIcnYmAV-17" value="&lt;font style=&quot;font-size: 16px;&quot;&gt;global_contex.cpp&lt;/font&gt;" style="text;html=1;strokeColor=none;fillColor=none;align=center;verticalAlign=middle;whiteSpace=wrap;rounded=0;" parent="1" vertex="1">
          <mxGeometry x="215" y="477" width="60" height="30" as="geometry" />
        </mxCell>
        <mxCell id="Qdl7iLAGfhI_xIcnYmAV-18" value="&lt;span style=&quot;font-size: 16px;&quot;&gt;Piccolo引擎入口&lt;/span&gt;" style="text;html=1;strokeColor=none;fillColor=none;align=center;verticalAlign=middle;whiteSpace=wrap;rounded=0;" parent="1" vertex="1">
          <mxGeometry x="-200" y="477" width="135" height="30" as="geometry" />
        </mxCell>
        <mxCell id="Qdl7iLAGfhI_xIcnYmAV-19" value="&lt;font style=&quot;font-size: 16px;&quot;&gt;&lt;b&gt;m_file_system&lt;/b&gt;&lt;/font&gt;" style="rounded=1;whiteSpace=wrap;html=1;fillColor=#d5e8d4;strokeColor=#82b366;" parent="1" vertex="1">
          <mxGeometry x="620" y="210" width="210" height="60" as="geometry" />
        </mxCell>
        <mxCell id="Qdl7iLAGfhI_xIcnYmAV-20" value="&lt;font style=&quot;font-size: 16px;&quot;&gt;&lt;b&gt;m_asset_manager&lt;/b&gt;&lt;/font&gt;" style="rounded=1;whiteSpace=wrap;html=1;fillColor=#d5e8d4;strokeColor=#82b366;" parent="1" vertex="1">
          <mxGeometry x="620" y="447" width="210" height="60" as="geometry" />
        </mxCell>
        <mxCell id="Qdl7iLAGfhI_xIcnYmAV-21" value="&lt;font style=&quot;font-size: 16px;&quot;&gt;&lt;b&gt;m_physics_manager&lt;/b&gt;&lt;/font&gt;" style="rounded=1;whiteSpace=wrap;html=1;fillColor=#d5e8d4;strokeColor=#82b366;" parent="1" vertex="1">
          <mxGeometry x="620" y="566" width="210" height="60" as="geometry" />
        </mxCell>
        <mxCell id="Qdl7iLAGfhI_xIcnYmAV-22" value="&lt;font style=&quot;font-size: 16px;&quot;&gt;&lt;b&gt;m_world_manager&lt;/b&gt;&lt;/font&gt;" style="rounded=1;whiteSpace=wrap;html=1;fillColor=#d5e8d4;strokeColor=#82b366;" parent="1" vertex="1">
          <mxGeometry x="620" y="684" width="210" height="60" as="geometry" />
        </mxCell>
        <mxCell id="Qdl7iLAGfhI_xIcnYmAV-23" value="&lt;font style=&quot;font-size: 16px;&quot;&gt;&lt;b&gt;m_window_system&lt;/b&gt;&lt;/font&gt;" style="rounded=1;whiteSpace=wrap;html=1;fillColor=#d5e8d4;strokeColor=#82b366;" parent="1" vertex="1">
          <mxGeometry x="620" y="803" width="210" height="60" as="geometry" />
        </mxCell>
        <mxCell id="Qdl7iLAGfhI_xIcnYmAV-24" value="&lt;span style=&quot;font-size: 16px;&quot;&gt;&lt;b&gt;m_particle_manager&lt;/b&gt;&lt;/span&gt;" style="rounded=1;whiteSpace=wrap;html=1;fillColor=#d5e8d4;strokeColor=#82b366;" parent="1" vertex="1">
          <mxGeometry x="620" y="910" width="210" height="60" as="geometry" />
        </mxCell>
        <mxCell id="Qdl7iLAGfhI_xIcnYmAV-25" value="&lt;font style=&quot;font-size: 16px;&quot;&gt;&lt;b&gt;m_config_manager&lt;/b&gt;&lt;/font&gt;" style="rounded=1;whiteSpace=wrap;html=1;fillColor=#d5e8d4;strokeColor=#82b366;" parent="1" vertex="1">
          <mxGeometry x="620" y="110" width="210" height="60" as="geometry" />
        </mxCell>
        <mxCell id="Qdl7iLAGfhI_xIcnYmAV-26" value="&lt;span style=&quot;font-size: 16px;&quot;&gt;渲染系统入口&lt;/span&gt;" style="text;html=1;strokeColor=none;fillColor=none;align=center;verticalAlign=middle;whiteSpace=wrap;rounded=0;" parent="1" vertex="1">
          <mxGeometry x="660" y="1110" width="125" height="30" as="geometry" />
        </mxCell>
        <mxCell id="Qdl7iLAGfhI_xIcnYmAV-48" style="edgeStyle=orthogonalEdgeStyle;rounded=0;orthogonalLoop=1;jettySize=auto;html=1;exitX=1;exitY=0.5;exitDx=0;exitDy=0;entryX=0;entryY=0.5;entryDx=0;entryDy=0;dashed=1;dashPattern=8 8;" parent="1" source="Qdl7iLAGfhI_xIcnYmAV-35" target="Qdl7iLAGfhI_xIcnYmAV-8" edge="1">
          <mxGeometry relative="1" as="geometry">
            <Array as="points">
              <mxPoint x="450" y="690" />
              <mxPoint x="450" y="891" />
            </Array>
          </mxGeometry>
        </mxCell>
        <mxCell id="Qdl7iLAGfhI_xIcnYmAV-35" value="&lt;font style=&quot;font-size: 16px;&quot;&gt;&lt;b&gt;startSystem()&lt;/b&gt;&lt;/font&gt;" style="rounded=1;whiteSpace=wrap;html=1;fillColor=#fff2cc;strokeColor=#d6b656;" parent="1" vertex="1">
          <mxGeometry x="215" y="660" width="155" height="60" as="geometry" />
        </mxCell>
        <mxCell id="Qdl7iLAGfhI_xIcnYmAV-49" style="edgeStyle=orthogonalEdgeStyle;rounded=0;orthogonalLoop=1;jettySize=auto;html=1;exitX=1;exitY=0.5;exitDx=0;exitDy=0;entryX=0;entryY=0.5;entryDx=0;entryDy=0;dashed=1;dashPattern=8 8;" parent="1" source="Qdl7iLAGfhI_xIcnYmAV-37" target="Qdl7iLAGfhI_xIcnYmAV-7" edge="1">
          <mxGeometry relative="1" as="geometry">
            <Array as="points">
              <mxPoint x="430" y="790" />
              <mxPoint x="430" y="980" />
            </Array>
          </mxGeometry>
        </mxCell>
        <mxCell id="Qdl7iLAGfhI_xIcnYmAV-37" value="&lt;font style=&quot;font-size: 16px;&quot;&gt;&lt;b&gt;shutdownSystem()&lt;/b&gt;&lt;/font&gt;" style="rounded=1;whiteSpace=wrap;html=1;fillColor=#fff2cc;strokeColor=#d6b656;" parent="1" vertex="1">
          <mxGeometry x="215" y="760" width="155" height="60" as="geometry" />
        </mxCell>
        <mxCell id="Qdl7iLAGfhI_xIcnYmAV-44" style="edgeStyle=orthogonalEdgeStyle;rounded=0;orthogonalLoop=1;jettySize=auto;html=1;exitX=0.25;exitY=1;exitDx=0;exitDy=0;entryX=0;entryY=0.5;entryDx=0;entryDy=0;" parent="1" source="Qdl7iLAGfhI_xIcnYmAV-40" target="Qdl7iLAGfhI_xIcnYmAV-42" edge="1">
          <mxGeometry relative="1" as="geometry" />
        </mxCell>
        <mxCell id="Qdl7iLAGfhI_xIcnYmAV-45" style="edgeStyle=orthogonalEdgeStyle;rounded=0;orthogonalLoop=1;jettySize=auto;html=1;exitX=0.25;exitY=1;exitDx=0;exitDy=0;entryX=0;entryY=0.5;entryDx=0;entryDy=0;" parent="1" source="Qdl7iLAGfhI_xIcnYmAV-40" target="Qdl7iLAGfhI_xIcnYmAV-43" edge="1">
          <mxGeometry relative="1" as="geometry" />
        </mxCell>
        <mxCell id="Qdl7iLAGfhI_xIcnYmAV-40" value="&lt;span style=&quot;font-size: 16px;&quot;&gt;&lt;b&gt;tickOneFrame()&lt;/b&gt;&lt;/span&gt;" style="rounded=1;whiteSpace=wrap;html=1;fillColor=#fff2cc;strokeColor=#d6b656;" parent="1" vertex="1">
          <mxGeometry x="-140" y="660" width="155" height="60" as="geometry" />
        </mxCell>
        <mxCell id="Qdl7iLAGfhI_xIcnYmAV-42" value="&lt;span style=&quot;font-size: 16px;&quot;&gt;&lt;b&gt;logicalTick()&lt;/b&gt;&lt;/span&gt;" style="rounded=1;whiteSpace=wrap;html=1;fillColor=#fff2cc;strokeColor=#d6b656;" parent="1" vertex="1">
          <mxGeometry x="-80" y="763" width="155" height="60" as="geometry" />
        </mxCell>
        <mxCell id="Qdl7iLAGfhI_xIcnYmAV-47" style="edgeStyle=orthogonalEdgeStyle;rounded=1;orthogonalLoop=1;jettySize=auto;html=1;exitX=1;exitY=0.5;exitDx=0;exitDy=0;entryX=0.5;entryY=1;entryDx=0;entryDy=0;dashed=1;dashPattern=8 8;" parent="1" source="Qdl7iLAGfhI_xIcnYmAV-43" target="Qdl7iLAGfhI_xIcnYmAV-5" edge="1">
          <mxGeometry relative="1" as="geometry">
            <Array as="points">
              <mxPoint x="280" y="900" />
              <mxPoint x="280" y="1220" />
              <mxPoint x="1070" y="1220" />
            </Array>
          </mxGeometry>
        </mxCell>
        <mxCell id="Qdl7iLAGfhI_xIcnYmAV-43" value="&lt;span style=&quot;font-size: 16px;&quot;&gt;&lt;b&gt;renderTick()&lt;/b&gt;&lt;/span&gt;" style="rounded=1;whiteSpace=wrap;html=1;fillColor=#fff2cc;strokeColor=#d6b656;" parent="1" vertex="1">
          <mxGeometry x="-80" y="870" width="155" height="60" as="geometry" />
        </mxCell>
        <mxCell id="Qdl7iLAGfhI_xIcnYmAV-52" value="&lt;font style=&quot;font-size: 16px;&quot;&gt;&lt;b&gt;Member Variables&lt;/b&gt;&lt;/font&gt;" style="rounded=1;whiteSpace=wrap;html=1;fillColor=#d5e8d4;strokeColor=#82b366;" parent="1" vertex="1">
          <mxGeometry x="-570" y="1169" width="150" height="50" as="geometry" />
        </mxCell>
        <mxCell id="Qdl7iLAGfhI_xIcnYmAV-53" value="&lt;font style=&quot;font-size: 16px;&quot;&gt;render_system.h/cpp&lt;/font&gt;" style="text;html=1;strokeColor=none;fillColor=none;align=center;verticalAlign=middle;whiteSpace=wrap;rounded=0;" parent="1" vertex="1">
          <mxGeometry x="695" y="1010" width="60" height="30" as="geometry" />
        </mxCell>
        <mxCell id="Qdl7iLAGfhI_xIcnYmAV-74" style="edgeStyle=orthogonalEdgeStyle;rounded=0;orthogonalLoop=1;jettySize=auto;html=1;exitX=1;exitY=0.5;exitDx=0;exitDy=0;entryX=0;entryY=0.5;entryDx=0;entryDy=0;" parent="1" source="Qdl7iLAGfhI_xIcnYmAV-55" target="Qdl7iLAGfhI_xIcnYmAV-66" edge="1">
          <mxGeometry relative="1" as="geometry" />
        </mxCell>
        <mxCell id="Qdl7iLAGfhI_xIcnYmAV-55" value="&lt;font style=&quot;font-size: 16px;&quot;&gt;&lt;b&gt;m_rhi&lt;/b&gt;&lt;/font&gt;" style="rounded=1;whiteSpace=wrap;html=1;fillColor=#d5e8d4;strokeColor=#82b366;flipH=1;" parent="1" vertex="1">
          <mxGeometry x="1280" y="325" width="210" height="60" as="geometry" />
        </mxCell>
        <mxCell id="Qdl7iLAGfhI_xIcnYmAV-83" style="edgeStyle=orthogonalEdgeStyle;rounded=0;orthogonalLoop=1;jettySize=auto;html=1;exitX=0.5;exitY=1;exitDx=0;exitDy=0;entryX=0.5;entryY=0;entryDx=0;entryDy=0;" parent="1" source="Qdl7iLAGfhI_xIcnYmAV-56" target="Qdl7iLAGfhI_xIcnYmAV-66" edge="1">
          <mxGeometry relative="1" as="geometry" />
        </mxCell>
        <mxCell id="Qdl7iLAGfhI_xIcnYmAV-56" value="&lt;font style=&quot;font-size: 16px;&quot;&gt;&lt;b&gt;processSwapData()&lt;/b&gt;&lt;/font&gt;" style="rounded=1;whiteSpace=wrap;html=1;fillColor=#fff2cc;strokeColor=#d6b656;" parent="1" vertex="1">
          <mxGeometry x="1540" y="131" width="210" height="60" as="geometry" />
        </mxCell>
        <mxCell id="Qdl7iLAGfhI_xIcnYmAV-75" style="edgeStyle=orthogonalEdgeStyle;rounded=0;orthogonalLoop=1;jettySize=auto;html=1;exitX=1;exitY=0.5;exitDx=0;exitDy=0;entryX=0;entryY=0.5;entryDx=0;entryDy=0;" parent="1" source="Qdl7iLAGfhI_xIcnYmAV-59" target="Qdl7iLAGfhI_xIcnYmAV-67" edge="1">
          <mxGeometry relative="1" as="geometry" />
        </mxCell>
        <mxCell id="Qdl7iLAGfhI_xIcnYmAV-59" value="&lt;font style=&quot;font-size: 16px;&quot;&gt;&lt;b&gt;m_render_resource&lt;/b&gt;&lt;/font&gt;" style="rounded=1;whiteSpace=wrap;html=1;fillColor=#d5e8d4;strokeColor=#82b366;flipH=0;" parent="1" vertex="1">
          <mxGeometry x="1280" y="431" width="210" height="60" as="geometry" />
        </mxCell>
        <mxCell id="Qdl7iLAGfhI_xIcnYmAV-76" style="edgeStyle=orthogonalEdgeStyle;rounded=0;orthogonalLoop=1;jettySize=auto;html=1;exitX=1;exitY=0.5;exitDx=0;exitDy=0;entryX=0;entryY=0.5;entryDx=0;entryDy=0;" parent="1" source="Qdl7iLAGfhI_xIcnYmAV-60" target="Qdl7iLAGfhI_xIcnYmAV-68" edge="1">
          <mxGeometry relative="1" as="geometry" />
        </mxCell>
        <mxCell id="Qdl7iLAGfhI_xIcnYmAV-60" value="&lt;font style=&quot;font-size: 16px;&quot;&gt;&lt;b&gt;m_render_scene&lt;/b&gt;&lt;/font&gt;" style="rounded=1;whiteSpace=wrap;html=1;fillColor=#d5e8d4;strokeColor=#82b366;" parent="1" vertex="1">
          <mxGeometry x="1280" y="531" width="210" height="60" as="geometry" />
        </mxCell>
        <mxCell id="Qdl7iLAGfhI_xIcnYmAV-78" style="edgeStyle=orthogonalEdgeStyle;rounded=0;orthogonalLoop=1;jettySize=auto;html=1;exitX=1;exitY=0.5;exitDx=0;exitDy=0;entryX=0;entryY=0.5;entryDx=0;entryDy=0;" parent="1" source="Qdl7iLAGfhI_xIcnYmAV-61" target="Qdl7iLAGfhI_xIcnYmAV-73" edge="1">
          <mxGeometry relative="1" as="geometry" />
        </mxCell>
        <mxCell id="Qdl7iLAGfhI_xIcnYmAV-81" style="edgeStyle=orthogonalEdgeStyle;rounded=0;orthogonalLoop=1;jettySize=auto;html=1;exitX=1;exitY=0.5;exitDx=0;exitDy=0;entryX=0;entryY=0.5;entryDx=0;entryDy=0;" parent="1" source="Qdl7iLAGfhI_xIcnYmAV-61" target="Qdl7iLAGfhI_xIcnYmAV-80" edge="1">
          <mxGeometry relative="1" as="geometry" />
        </mxCell>
        <mxCell id="Qdl7iLAGfhI_xIcnYmAV-82" style="edgeStyle=orthogonalEdgeStyle;rounded=0;orthogonalLoop=1;jettySize=auto;html=1;exitX=1;exitY=0.5;exitDx=0;exitDy=0;entryX=0;entryY=0.5;entryDx=0;entryDy=0;" parent="1" source="Qdl7iLAGfhI_xIcnYmAV-61" target="Qdl7iLAGfhI_xIcnYmAV-79" edge="1">
          <mxGeometry relative="1" as="geometry" />
        </mxCell>
        <mxCell id="Qdl7iLAGfhI_xIcnYmAV-61" value="&lt;font style=&quot;font-size: 16px;&quot;&gt;&lt;b&gt;m_render_pipeline&lt;/b&gt;&lt;/font&gt;" style="rounded=1;whiteSpace=wrap;html=1;fillColor=#d5e8d4;strokeColor=#82b366;" parent="1" vertex="1">
          <mxGeometry x="1280" y="1001" width="210" height="60" as="geometry" />
        </mxCell>
        <mxCell id="Qdl7iLAGfhI_xIcnYmAV-84" style="edgeStyle=orthogonalEdgeStyle;rounded=0;orthogonalLoop=1;jettySize=auto;html=1;exitX=0.5;exitY=1;exitDx=0;exitDy=0;entryX=0.5;entryY=0;entryDx=0;entryDy=0;" parent="1" source="Qdl7iLAGfhI_xIcnYmAV-66" target="Qdl7iLAGfhI_xIcnYmAV-67" edge="1">
          <mxGeometry relative="1" as="geometry" />
        </mxCell>
        <mxCell id="Qdl7iLAGfhI_xIcnYmAV-66" value="&lt;font style=&quot;font-size: 16px;&quot;&gt;&lt;b&gt;prepareContext()&lt;/b&gt;&lt;/font&gt;" style="rounded=1;whiteSpace=wrap;html=1;fillColor=#fff2cc;strokeColor=#d6b656;flipH=1;" parent="1" vertex="1">
          <mxGeometry x="1540" y="325" width="210" height="60" as="geometry" />
        </mxCell>
        <mxCell id="Qdl7iLAGfhI_xIcnYmAV-85" style="edgeStyle=orthogonalEdgeStyle;rounded=0;orthogonalLoop=1;jettySize=auto;html=1;exitX=0.5;exitY=1;exitDx=0;exitDy=0;entryX=0.5;entryY=0;entryDx=0;entryDy=0;" parent="1" source="Qdl7iLAGfhI_xIcnYmAV-67" target="Qdl7iLAGfhI_xIcnYmAV-68" edge="1">
          <mxGeometry relative="1" as="geometry" />
        </mxCell>
        <mxCell id="Qdl7iLAGfhI_xIcnYmAV-67" value="&lt;font style=&quot;font-size: 16px;&quot;&gt;&lt;b&gt;updatePerFrameBuffer()&lt;/b&gt;&lt;/font&gt;" style="rounded=1;whiteSpace=wrap;html=1;fillColor=#fff2cc;strokeColor=#d6b656;flipH=0;" parent="1" vertex="1">
          <mxGeometry x="1540" y="431" width="210" height="60" as="geometry" />
        </mxCell>
        <mxCell id="Qdl7iLAGfhI_xIcnYmAV-86" style="edgeStyle=orthogonalEdgeStyle;rounded=0;orthogonalLoop=1;jettySize=auto;html=1;exitX=0.5;exitY=1;exitDx=0;exitDy=0;entryX=0.5;entryY=0;entryDx=0;entryDy=0;" parent="1" source="Qdl7iLAGfhI_xIcnYmAV-68" target="Qdl7iLAGfhI_xIcnYmAV-73" edge="1">
          <mxGeometry relative="1" as="geometry" />
        </mxCell>
        <mxCell id="Qdl7iLAGfhI_xIcnYmAV-68" value="&lt;font style=&quot;font-size: 16px;&quot;&gt;&lt;b&gt;updateVisibleObjects()&lt;/b&gt;&lt;/font&gt;" style="rounded=1;whiteSpace=wrap;html=1;fillColor=#fff2cc;strokeColor=#d6b656;" parent="1" vertex="1">
          <mxGeometry x="1540" y="531" width="210" height="60" as="geometry" />
        </mxCell>
        <mxCell id="Qdl7iLAGfhI_xIcnYmAV-77" style="edgeStyle=orthogonalEdgeStyle;rounded=0;orthogonalLoop=1;jettySize=auto;html=1;exitX=1;exitY=0.5;exitDx=0;exitDy=0;entryX=0;entryY=0.5;entryDx=0;entryDy=0;dashed=1;" parent="1" source="Qdl7iLAGfhI_xIcnYmAV-69" target="Qdl7iLAGfhI_xIcnYmAV-72" edge="1">
          <mxGeometry relative="1" as="geometry" />
        </mxCell>
        <mxCell id="Qdl7iLAGfhI_xIcnYmAV-69" value="&lt;font style=&quot;font-size: 16px;&quot;&gt;&lt;b&gt;m_debugdraw_manager&lt;/b&gt;&lt;/font&gt;" style="rounded=1;whiteSpace=wrap;html=1;fillColor=#d5e8d4;strokeColor=#82b366;" parent="1" vertex="1">
          <mxGeometry x="1280" y="727" width="210" height="60" as="geometry" />
        </mxCell>
        <mxCell id="Qdl7iLAGfhI_xIcnYmAV-93" style="edgeStyle=orthogonalEdgeStyle;rounded=0;orthogonalLoop=1;jettySize=auto;html=1;exitX=0.5;exitY=1;exitDx=0;exitDy=0;entryX=0.5;entryY=0;entryDx=0;entryDy=0;" parent="1" source="Qdl7iLAGfhI_xIcnYmAV-72" target="Qdl7iLAGfhI_xIcnYmAV-79" edge="1">
          <mxGeometry relative="1" as="geometry" />
        </mxCell>
        <mxCell id="Qdl7iLAGfhI_xIcnYmAV-72" value="&lt;font style=&quot;font-size: 16px;&quot;&gt;&lt;b&gt;tick()&lt;/b&gt;&lt;/font&gt;" style="rounded=1;whiteSpace=wrap;html=1;fillColor=#fff2cc;strokeColor=#d6b656;" parent="1" vertex="1">
          <mxGeometry x="1540" y="727" width="210" height="60" as="geometry" />
        </mxCell>
        <mxCell id="Qdl7iLAGfhI_xIcnYmAV-87" style="edgeStyle=orthogonalEdgeStyle;rounded=0;orthogonalLoop=1;jettySize=auto;html=1;exitX=0.5;exitY=1;exitDx=0;exitDy=0;entryX=0.5;entryY=0;entryDx=0;entryDy=0;" parent="1" source="Qdl7iLAGfhI_xIcnYmAV-73" target="Qdl7iLAGfhI_xIcnYmAV-72" edge="1">
          <mxGeometry relative="1" as="geometry" />
        </mxCell>
        <mxCell id="Qdl7iLAGfhI_xIcnYmAV-73" value="&lt;span style=&quot;font-size: 16px;&quot;&gt;&lt;b&gt;preparePassDate()&lt;/b&gt;&lt;/span&gt;" style="rounded=1;whiteSpace=wrap;html=1;fillColor=#fff2cc;strokeColor=#d6b656;" parent="1" vertex="1">
          <mxGeometry x="1540" y="631" width="210" height="60" as="geometry" />
        </mxCell>
        <mxCell id="Qdl7iLAGfhI_xIcnYmAV-94" style="edgeStyle=orthogonalEdgeStyle;rounded=0;orthogonalLoop=1;jettySize=auto;html=1;exitX=0.5;exitY=1;exitDx=0;exitDy=0;entryX=0.5;entryY=0;entryDx=0;entryDy=0;" parent="1" source="Qdl7iLAGfhI_xIcnYmAV-79" target="Qdl7iLAGfhI_xIcnYmAV-80" edge="1">
          <mxGeometry relative="1" as="geometry" />
        </mxCell>
        <mxCell id="Qdl7iLAGfhI_xIcnYmAV-79" value="&lt;span style=&quot;font-size: 16px;&quot;&gt;&lt;b&gt;forwardRender()&lt;/b&gt;&lt;/span&gt;" style="rounded=1;whiteSpace=wrap;html=1;fillColor=#fff2cc;strokeColor=#d6b656;" parent="1" vertex="1">
          <mxGeometry x="1540" y="831" width="210" height="60" as="geometry" />
        </mxCell>
        <mxCell id="Qdl7iLAGfhI_xIcnYmAV-80" value="&lt;font style=&quot;font-size: 16px;&quot;&gt;&lt;b&gt;defferedRender()&lt;/b&gt;&lt;/font&gt;" style="rounded=1;whiteSpace=wrap;html=1;fillColor=#fff2cc;strokeColor=#d6b656;" parent="1" vertex="1">
          <mxGeometry x="1540" y="1001" width="210" height="60" as="geometry" />
        </mxCell>
        <mxCell id="Qdl7iLAGfhI_xIcnYmAV-92" value="&lt;font style=&quot;font-size: 16px;&quot;&gt;or&lt;br&gt;&lt;/font&gt;" style="text;html=1;strokeColor=none;fillColor=none;align=center;verticalAlign=middle;whiteSpace=wrap;rounded=0;" parent="1" vertex="1">
          <mxGeometry x="1640" y="940" width="60" height="30" as="geometry" />
        </mxCell>
        <mxCell id="Qdl7iLAGfhI_xIcnYmAV-107" style="edgeStyle=orthogonalEdgeStyle;rounded=0;orthogonalLoop=1;jettySize=auto;html=1;exitX=0.5;exitY=1;exitDx=0;exitDy=0;entryX=0.5;entryY=0;entryDx=0;entryDy=0;" parent="1" source="Qdl7iLAGfhI_xIcnYmAV-97" target="Qdl7iLAGfhI_xIcnYmAV-98" edge="1">
          <mxGeometry relative="1" as="geometry" />
        </mxCell>
        <mxCell id="Qdl7iLAGfhI_xIcnYmAV-97" value="&lt;span style=&quot;font-size: 16px;&quot;&gt;&lt;b&gt;DirectionalLightShadowPass&lt;/b&gt;&lt;/span&gt;" style="rounded=1;whiteSpace=wrap;html=1;fillColor=#d5e8d4;strokeColor=#82b366;flipV=1;" parent="1" vertex="1">
          <mxGeometry x="1950" y="640" width="240" height="60" as="geometry" />
        </mxCell>
        <mxCell id="Qdl7iLAGfhI_xIcnYmAV-108" style="edgeStyle=orthogonalEdgeStyle;rounded=0;orthogonalLoop=1;jettySize=auto;html=1;exitX=0.5;exitY=1;exitDx=0;exitDy=0;entryX=0.5;entryY=0;entryDx=0;entryDy=0;" parent="1" source="Qdl7iLAGfhI_xIcnYmAV-98" target="Qdl7iLAGfhI_xIcnYmAV-99" edge="1">
          <mxGeometry relative="1" as="geometry" />
        </mxCell>
        <mxCell id="Qdl7iLAGfhI_xIcnYmAV-98" value="&lt;span style=&quot;font-size: 16px;&quot;&gt;&lt;b&gt;PointLightShaowPass&lt;/b&gt;&lt;/span&gt;" style="rounded=1;whiteSpace=wrap;html=1;fillColor=#d5e8d4;strokeColor=#82b366;flipV=1;" parent="1" vertex="1">
          <mxGeometry x="1950" y="773" width="240" height="60" as="geometry" />
        </mxCell>
        <mxCell id="Qdl7iLAGfhI_xIcnYmAV-109" style="edgeStyle=orthogonalEdgeStyle;rounded=0;orthogonalLoop=1;jettySize=auto;html=1;exitX=0.5;exitY=1;exitDx=0;exitDy=0;entryX=0.5;entryY=0;entryDx=0;entryDy=0;" parent="1" source="Qdl7iLAGfhI_xIcnYmAV-99" target="Qdl7iLAGfhI_xIcnYmAV-100" edge="1">
          <mxGeometry relative="1" as="geometry" />
        </mxCell>
        <mxCell id="OIsqS4VPK4oWSXmHvmEe-6" style="edgeStyle=orthogonalEdgeStyle;rounded=0;orthogonalLoop=1;jettySize=auto;html=1;exitX=1;exitY=0.5;exitDx=0;exitDy=0;entryX=0.5;entryY=0;entryDx=0;entryDy=0;" parent="1" source="Qdl7iLAGfhI_xIcnYmAV-99" target="yHAYQrB9C3ZelxVDnKD3-46" edge="1">
          <mxGeometry relative="1" as="geometry">
            <Array as="points">
              <mxPoint x="2300" y="937" />
              <mxPoint x="2300" y="110" />
              <mxPoint x="2540" y="110" />
            </Array>
          </mxGeometry>
        </mxCell>
        <mxCell id="OIsqS4VPK4oWSXmHvmEe-7" style="edgeStyle=orthogonalEdgeStyle;rounded=0;orthogonalLoop=1;jettySize=auto;html=1;exitX=1;exitY=0.5;exitDx=0;exitDy=0;entryX=0.5;entryY=0;entryDx=0;entryDy=0;" parent="1" source="Qdl7iLAGfhI_xIcnYmAV-99" target="pEqh-E6jFmeCIz5NGv_O-1" edge="1">
          <mxGeometry relative="1" as="geometry">
            <Array as="points">
              <mxPoint x="2300" y="937" />
              <mxPoint x="2300" y="110" />
              <mxPoint x="2865" y="110" />
            </Array>
          </mxGeometry>
        </mxCell>
        <mxCell id="Qdl7iLAGfhI_xIcnYmAV-99" value="&lt;span style=&quot;font-size: 16px;&quot;&gt;&lt;b&gt;main_camera_pass&lt;/b&gt;&lt;/span&gt;" style="rounded=1;whiteSpace=wrap;html=1;fillColor=#d5e8d4;strokeColor=#82b366;flipV=1;" parent="1" vertex="1">
          <mxGeometry x="1950" y="907" width="240" height="60" as="geometry" />
        </mxCell>
        <mxCell id="Qdl7iLAGfhI_xIcnYmAV-100" value="&lt;span style=&quot;font-size: 16px;&quot;&gt;&lt;b&gt;debugdraw_manager&lt;/b&gt;&lt;/span&gt;" style="rounded=1;whiteSpace=wrap;html=1;fillColor=#d5e8d4;strokeColor=#82b366;flipV=1;" parent="1" vertex="1">
          <mxGeometry x="1950" y="1040" width="240" height="60" as="geometry" />
        </mxCell>
        <mxCell id="Qdl7iLAGfhI_xIcnYmAV-116" style="edgeStyle=orthogonalEdgeStyle;rounded=0;orthogonalLoop=1;jettySize=auto;html=1;exitX=0.5;exitY=1;exitDx=0;exitDy=0;entryX=0.5;entryY=0;entryDx=0;entryDy=0;" parent="1" source="Qdl7iLAGfhI_xIcnYmAV-106" target="Qdl7iLAGfhI_xIcnYmAV-110" edge="1">
          <mxGeometry relative="1" as="geometry" />
        </mxCell>
        <mxCell id="Qdl7iLAGfhI_xIcnYmAV-106" value="&lt;span style=&quot;font-size: 16px;&quot;&gt;&lt;b&gt;drawMeshGbuffer( )&lt;/b&gt;&lt;/span&gt;" style="rounded=1;whiteSpace=wrap;html=1;fillColor=#d5e8d4;strokeColor=#82b366;" parent="1" vertex="1">
          <mxGeometry x="2380" y="283" width="220" height="60" as="geometry" />
        </mxCell>
        <mxCell id="OIsqS4VPK4oWSXmHvmEe-26" style="edgeStyle=orthogonalEdgeStyle;rounded=0;orthogonalLoop=1;jettySize=auto;html=1;exitX=0.5;exitY=1;exitDx=0;exitDy=0;" parent="1" source="Qdl7iLAGfhI_xIcnYmAV-110" target="Qdl7iLAGfhI_xIcnYmAV-111" edge="1">
          <mxGeometry relative="1" as="geometry" />
        </mxCell>
        <mxCell id="Qdl7iLAGfhI_xIcnYmAV-110" value="&lt;span style=&quot;font-size: 16px;&quot;&gt;&lt;b&gt;drawDefferedLighting( )&lt;/b&gt;&lt;/span&gt;" style="rounded=1;whiteSpace=wrap;html=1;fillColor=#d5e8d4;strokeColor=#82b366;" parent="1" vertex="1">
          <mxGeometry x="2380" y="371" width="220" height="60" as="geometry" />
        </mxCell>
        <mxCell id="Qdl7iLAGfhI_xIcnYmAV-118" style="edgeStyle=orthogonalEdgeStyle;rounded=0;orthogonalLoop=1;jettySize=auto;html=1;exitX=0.5;exitY=1;exitDx=0;exitDy=0;entryX=0.5;entryY=0;entryDx=0;entryDy=0;" parent="1" source="Qdl7iLAGfhI_xIcnYmAV-111" target="Qdl7iLAGfhI_xIcnYmAV-112" edge="1">
          <mxGeometry relative="1" as="geometry" />
        </mxCell>
        <mxCell id="Qdl7iLAGfhI_xIcnYmAV-111" value="&lt;span style=&quot;font-size: 16px;&quot;&gt;&lt;b&gt;particle_pass&lt;/b&gt;&lt;/span&gt;" style="rounded=1;whiteSpace=wrap;html=1;fillColor=#d5e8d4;strokeColor=#82b366;" parent="1" vertex="1">
          <mxGeometry x="2540" y="511" width="220" height="60" as="geometry" />
        </mxCell>
        <mxCell id="Qdl7iLAGfhI_xIcnYmAV-119" style="edgeStyle=orthogonalEdgeStyle;rounded=0;orthogonalLoop=1;jettySize=auto;html=1;exitX=0.5;exitY=1;exitDx=0;exitDy=0;entryX=0.5;entryY=0;entryDx=0;entryDy=0;" parent="1" source="Qdl7iLAGfhI_xIcnYmAV-112" target="Qdl7iLAGfhI_xIcnYmAV-113" edge="1">
          <mxGeometry relative="1" as="geometry" />
        </mxCell>
        <mxCell id="Qdl7iLAGfhI_xIcnYmAV-112" value="&lt;b style=&quot;border-color: var(--border-color); font-size: 16px;&quot;&gt;tone_mapping_pass&lt;/b&gt;" style="rounded=1;whiteSpace=wrap;html=1;fillColor=#d5e8d4;strokeColor=#82b366;" parent="1" vertex="1">
          <mxGeometry x="2540" y="625" width="220" height="60" as="geometry" />
        </mxCell>
        <mxCell id="OIsqS4VPK4oWSXmHvmEe-13" style="edgeStyle=orthogonalEdgeStyle;rounded=0;orthogonalLoop=1;jettySize=auto;html=1;exitX=0.5;exitY=1;exitDx=0;exitDy=0;" parent="1" source="Qdl7iLAGfhI_xIcnYmAV-113" target="OIsqS4VPK4oWSXmHvmEe-9" edge="1">
          <mxGeometry relative="1" as="geometry" />
        </mxCell>
        <mxCell id="Qdl7iLAGfhI_xIcnYmAV-113" value="&lt;b style=&quot;border-color: var(--border-color); font-size: 16px;&quot;&gt;color_grading_pass&lt;/b&gt;" style="rounded=1;whiteSpace=wrap;html=1;fillColor=#d5e8d4;strokeColor=#82b366;" parent="1" vertex="1">
          <mxGeometry x="2540" y="739" width="220" height="60" as="geometry" />
        </mxCell>
        <mxCell id="yHAYQrB9C3ZelxVDnKD3-8" style="edgeStyle=none;curved=1;rounded=0;orthogonalLoop=1;jettySize=auto;html=1;exitX=1;exitY=0.5;exitDx=0;exitDy=0;entryX=0;entryY=0.5;entryDx=0;entryDy=0;fontSize=12;startSize=8;endSize=8;" parent="1" source="yHAYQrB9C3ZelxVDnKD3-1" target="yHAYQrB9C3ZelxVDnKD3-6" edge="1">
          <mxGeometry relative="1" as="geometry" />
        </mxCell>
        <mxCell id="yHAYQrB9C3ZelxVDnKD3-1" value="&lt;span style=&quot;font-size: 16px;&quot;&gt;&lt;b&gt;rhi.h&lt;/b&gt;&lt;/span&gt;" style="rounded=1;whiteSpace=wrap;html=1;fillColor=#e1d5e7;strokeColor=#9673a6;" parent="1" vertex="1">
          <mxGeometry x="15" y="1500" width="210" height="60" as="geometry" />
        </mxCell>
        <mxCell id="yHAYQrB9C3ZelxVDnKD3-2" value="&lt;span style=&quot;font-size: 16px;&quot;&gt;面向所有API的函数接口&lt;/span&gt;" style="text;html=1;strokeColor=none;fillColor=none;align=center;verticalAlign=middle;whiteSpace=wrap;rounded=0;" parent="1" vertex="1">
          <mxGeometry x="15" y="1470" width="177.5" height="30" as="geometry" />
        </mxCell>
        <mxCell id="yHAYQrB9C3ZelxVDnKD3-3" value="&lt;font style=&quot;font-size: 16px;&quot;&gt;&lt;b&gt;File&lt;br&gt;&lt;/b&gt;&lt;/font&gt;" style="rounded=1;whiteSpace=wrap;html=1;fillColor=#e1d5e7;strokeColor=#9673a6;" parent="1" vertex="1">
          <mxGeometry x="-570" y="1250" width="150" height="50" as="geometry" />
        </mxCell>
        <mxCell id="yHAYQrB9C3ZelxVDnKD3-9" style="edgeStyle=none;curved=1;rounded=0;orthogonalLoop=1;jettySize=auto;html=1;exitX=1;exitY=0.5;exitDx=0;exitDy=0;entryX=0;entryY=0.5;entryDx=0;entryDy=0;fontSize=12;startSize=8;endSize=8;" parent="1" source="yHAYQrB9C3ZelxVDnKD3-4" target="yHAYQrB9C3ZelxVDnKD3-5" edge="1">
          <mxGeometry relative="1" as="geometry" />
        </mxCell>
        <mxCell id="yHAYQrB9C3ZelxVDnKD3-4" value="&lt;span style=&quot;font-size: 16px;&quot;&gt;&lt;b&gt;rhi_struct.h&lt;/b&gt;&lt;/span&gt;" style="rounded=1;whiteSpace=wrap;html=1;fillColor=#e1d5e7;strokeColor=#9673a6;" parent="1" vertex="1">
          <mxGeometry x="15" y="1800" width="210" height="60" as="geometry" />
        </mxCell>
        <mxCell id="yHAYQrB9C3ZelxVDnKD3-5" value="&lt;span style=&quot;font-size: 16px;&quot;&gt;&lt;b&gt;vulkan_rhi_resource.h&lt;/b&gt;&lt;/span&gt;" style="rounded=1;whiteSpace=wrap;html=1;fillColor=#e1d5e7;strokeColor=#9673a6;" parent="1" vertex="1">
          <mxGeometry x="390" y="1800" width="210" height="60" as="geometry" />
        </mxCell>
        <mxCell id="yHAYQrB9C3ZelxVDnKD3-6" value="&lt;span style=&quot;font-size: 16px;&quot;&gt;&lt;b&gt;vulkan_rhi.h/cpp&lt;/b&gt;&lt;/span&gt;" style="rounded=1;whiteSpace=wrap;html=1;fillColor=#e1d5e7;strokeColor=#9673a6;" parent="1" vertex="1">
          <mxGeometry x="390" y="1500" width="210" height="60" as="geometry" />
        </mxCell>
        <mxCell id="yHAYQrB9C3ZelxVDnKD3-10" style="edgeStyle=none;curved=1;rounded=0;orthogonalLoop=1;jettySize=auto;html=1;exitX=0.5;exitY=0;exitDx=0;exitDy=0;entryX=0.5;entryY=1;entryDx=0;entryDy=0;fontSize=12;startSize=8;endSize=8;" parent="1" source="yHAYQrB9C3ZelxVDnKD3-7" target="yHAYQrB9C3ZelxVDnKD3-6" edge="1">
          <mxGeometry relative="1" as="geometry" />
        </mxCell>
        <mxCell id="yHAYQrB9C3ZelxVDnKD3-7" value="&lt;span style=&quot;font-size: 16px;&quot;&gt;&lt;b&gt;vulkan_util.h/cpp&lt;/b&gt;&lt;/span&gt;" style="rounded=1;whiteSpace=wrap;html=1;fillColor=#e1d5e7;strokeColor=#9673a6;" parent="1" vertex="1">
          <mxGeometry x="390" y="1630" width="210" height="60" as="geometry" />
        </mxCell>
        <mxCell id="yHAYQrB9C3ZelxVDnKD3-11" value="&lt;span style=&quot;font-size: 16px;&quot;&gt;只面向vulkan的函数接口&lt;/span&gt;" style="text;html=1;strokeColor=none;fillColor=none;align=center;verticalAlign=middle;whiteSpace=wrap;rounded=0;" parent="1" vertex="1">
          <mxGeometry x="387.5" y="1470" width="177.5" height="30" as="geometry" />
        </mxCell>
        <mxCell id="yHAYQrB9C3ZelxVDnKD3-12" value="&lt;span style=&quot;font-size: 16px;&quot;&gt;vulkan经常调用的函数&lt;/span&gt;" style="text;html=1;strokeColor=none;fillColor=none;align=left;verticalAlign=middle;whiteSpace=wrap;rounded=0;" parent="1" vertex="1">
          <mxGeometry x="390" y="1600" width="225" height="30" as="geometry" />
        </mxCell>
        <mxCell id="yHAYQrB9C3ZelxVDnKD3-13" value="&lt;span style=&quot;font-size: 16px;&quot;&gt;面向所有API封装的对象&lt;/span&gt;" style="text;html=1;strokeColor=none;fillColor=none;align=left;verticalAlign=middle;whiteSpace=wrap;rounded=0;" parent="1" vertex="1">
          <mxGeometry x="15" y="1770" width="177.5" height="30" as="geometry" />
        </mxCell>
        <mxCell id="yHAYQrB9C3ZelxVDnKD3-14" value="&lt;span style=&quot;font-size: 16px;&quot;&gt;只为Vulkan封装的对象&lt;/span&gt;" style="text;html=1;strokeColor=none;fillColor=none;align=left;verticalAlign=middle;whiteSpace=wrap;rounded=0;" parent="1" vertex="1">
          <mxGeometry x="390" y="1770" width="177.5" height="30" as="geometry" />
        </mxCell>
        <mxCell id="yHAYQrB9C3ZelxVDnKD3-33" style="edgeStyle=none;curved=1;rounded=0;orthogonalLoop=1;jettySize=auto;html=1;exitX=1;exitY=0.5;exitDx=0;exitDy=0;entryX=0;entryY=0.5;entryDx=0;entryDy=0;fontSize=12;startSize=8;endSize=8;" parent="1" source="yHAYQrB9C3ZelxVDnKD3-16" target="yHAYQrB9C3ZelxVDnKD3-23" edge="1">
          <mxGeometry relative="1" as="geometry" />
        </mxCell>
        <mxCell id="yHAYQrB9C3ZelxVDnKD3-40" style="edgeStyle=none;curved=1;rounded=0;orthogonalLoop=1;jettySize=auto;html=1;exitX=1;exitY=0.5;exitDx=0;exitDy=0;entryX=0;entryY=0.5;entryDx=0;entryDy=0;fontSize=12;startSize=8;endSize=8;" parent="1" source="yHAYQrB9C3ZelxVDnKD3-16" target="yHAYQrB9C3ZelxVDnKD3-25" edge="1">
          <mxGeometry relative="1" as="geometry" />
        </mxCell>
        <mxCell id="yHAYQrB9C3ZelxVDnKD3-16" value="&lt;span style=&quot;font-size: 16px;&quot;&gt;&lt;b&gt;_per_mesh&lt;/b&gt;&lt;/span&gt;" style="rounded=1;whiteSpace=wrap;html=1;fillColor=#dae8fc;strokeColor=#6c8ebf;" parent="1" vertex="1">
          <mxGeometry x="940" y="1380" width="210" height="60" as="geometry" />
        </mxCell>
        <mxCell id="yHAYQrB9C3ZelxVDnKD3-34" style="edgeStyle=none;curved=1;rounded=0;orthogonalLoop=1;jettySize=auto;html=1;exitX=1;exitY=0.5;exitDx=0;exitDy=0;fontSize=12;startSize=8;endSize=8;" parent="1" source="yHAYQrB9C3ZelxVDnKD3-17" edge="1">
          <mxGeometry relative="1" as="geometry">
            <mxPoint x="1390" y="1410" as="targetPoint" />
          </mxGeometry>
        </mxCell>
        <mxCell id="yHAYQrB9C3ZelxVDnKD3-36" style="edgeStyle=none;curved=1;rounded=0;orthogonalLoop=1;jettySize=auto;html=1;exitX=1;exitY=0.5;exitDx=0;exitDy=0;fontSize=12;startSize=8;endSize=8;" parent="1" source="yHAYQrB9C3ZelxVDnKD3-17" target="yHAYQrB9C3ZelxVDnKD3-24" edge="1">
          <mxGeometry relative="1" as="geometry" />
        </mxCell>
        <mxCell id="yHAYQrB9C3ZelxVDnKD3-39" style="edgeStyle=none;curved=1;rounded=0;orthogonalLoop=1;jettySize=auto;html=1;exitX=1;exitY=0.5;exitDx=0;exitDy=0;entryX=0;entryY=0.5;entryDx=0;entryDy=0;fontSize=12;startSize=8;endSize=8;" parent="1" source="yHAYQrB9C3ZelxVDnKD3-17" target="yHAYQrB9C3ZelxVDnKD3-25" edge="1">
          <mxGeometry relative="1" as="geometry" />
        </mxCell>
        <mxCell id="yHAYQrB9C3ZelxVDnKD3-17" value="&lt;span style=&quot;font-size: 16px;&quot;&gt;&lt;b&gt;_mesh_global&lt;/b&gt;&lt;/span&gt;" style="rounded=1;whiteSpace=wrap;html=1;fillColor=#dae8fc;strokeColor=#6c8ebf;" parent="1" vertex="1">
          <mxGeometry x="940" y="1467" width="210" height="60" as="geometry" />
        </mxCell>
        <mxCell id="yHAYQrB9C3ZelxVDnKD3-35" style="edgeStyle=none;curved=1;rounded=0;orthogonalLoop=1;jettySize=auto;html=1;exitX=1;exitY=0.5;exitDx=0;exitDy=0;entryX=0;entryY=0.5;entryDx=0;entryDy=0;fontSize=12;startSize=8;endSize=8;" parent="1" source="yHAYQrB9C3ZelxVDnKD3-18" target="yHAYQrB9C3ZelxVDnKD3-23" edge="1">
          <mxGeometry relative="1" as="geometry" />
        </mxCell>
        <mxCell id="yHAYQrB9C3ZelxVDnKD3-41" style="edgeStyle=none;curved=1;rounded=0;orthogonalLoop=1;jettySize=auto;html=1;exitX=1;exitY=0.5;exitDx=0;exitDy=0;entryX=0;entryY=0.5;entryDx=0;entryDy=0;fontSize=12;startSize=8;endSize=8;" parent="1" source="yHAYQrB9C3ZelxVDnKD3-18" target="yHAYQrB9C3ZelxVDnKD3-25" edge="1">
          <mxGeometry relative="1" as="geometry" />
        </mxCell>
        <mxCell id="yHAYQrB9C3ZelxVDnKD3-18" value="&lt;span style=&quot;font-size: 16px;&quot;&gt;&lt;b&gt;_mesh_per_material&lt;/b&gt;&lt;/span&gt;" style="rounded=1;whiteSpace=wrap;html=1;fillColor=#dae8fc;strokeColor=#6c8ebf;" parent="1" vertex="1">
          <mxGeometry x="940" y="1553" width="210" height="60" as="geometry" />
        </mxCell>
        <mxCell id="yHAYQrB9C3ZelxVDnKD3-38" style="edgeStyle=none;curved=1;rounded=0;orthogonalLoop=1;jettySize=auto;html=1;exitX=1;exitY=0.5;exitDx=0;exitDy=0;entryX=0;entryY=0.5;entryDx=0;entryDy=0;fontSize=12;startSize=8;endSize=8;" parent="1" source="yHAYQrB9C3ZelxVDnKD3-19" target="yHAYQrB9C3ZelxVDnKD3-24" edge="1">
          <mxGeometry relative="1" as="geometry" />
        </mxCell>
        <mxCell id="yHAYQrB9C3ZelxVDnKD3-42" style="edgeStyle=none;curved=1;rounded=0;orthogonalLoop=1;jettySize=auto;html=1;exitX=1;exitY=0.5;exitDx=0;exitDy=0;entryX=0;entryY=0.5;entryDx=0;entryDy=0;fontSize=12;startSize=8;endSize=8;" parent="1" source="yHAYQrB9C3ZelxVDnKD3-19" target="yHAYQrB9C3ZelxVDnKD3-26" edge="1">
          <mxGeometry relative="1" as="geometry" />
        </mxCell>
        <mxCell id="yHAYQrB9C3ZelxVDnKD3-19" value="&lt;span style=&quot;font-size: 16px;&quot;&gt;&lt;b&gt;_skybox&lt;/b&gt;&lt;/span&gt;" style="rounded=1;whiteSpace=wrap;html=1;fillColor=#dae8fc;strokeColor=#6c8ebf;" parent="1" vertex="1">
          <mxGeometry x="940" y="1640" width="210" height="60" as="geometry" />
        </mxCell>
        <mxCell id="yHAYQrB9C3ZelxVDnKD3-43" style="edgeStyle=none;curved=1;rounded=0;orthogonalLoop=1;jettySize=auto;html=1;exitX=1;exitY=0.5;exitDx=0;exitDy=0;entryX=0;entryY=0.5;entryDx=0;entryDy=0;fontSize=12;startSize=8;endSize=8;" parent="1" source="yHAYQrB9C3ZelxVDnKD3-20" target="yHAYQrB9C3ZelxVDnKD3-27" edge="1">
          <mxGeometry relative="1" as="geometry" />
        </mxCell>
        <mxCell id="yHAYQrB9C3ZelxVDnKD3-20" value="&lt;span style=&quot;font-size: 16px;&quot;&gt;&lt;b&gt;_axis&lt;/b&gt;&lt;/span&gt;" style="rounded=1;whiteSpace=wrap;html=1;fillColor=#dae8fc;strokeColor=#6c8ebf;" parent="1" vertex="1">
          <mxGeometry x="940" y="1727" width="210" height="60" as="geometry" />
        </mxCell>
        <mxCell id="yHAYQrB9C3ZelxVDnKD3-37" style="edgeStyle=none;curved=1;rounded=0;orthogonalLoop=1;jettySize=auto;html=1;exitX=1;exitY=0.5;exitDx=0;exitDy=0;entryX=0;entryY=0.5;entryDx=0;entryDy=0;fontSize=12;startSize=8;endSize=8;" parent="1" source="yHAYQrB9C3ZelxVDnKD3-21" target="yHAYQrB9C3ZelxVDnKD3-24" edge="1">
          <mxGeometry relative="1" as="geometry" />
        </mxCell>
        <mxCell id="yHAYQrB9C3ZelxVDnKD3-21" value="&lt;span style=&quot;font-size: 16px;&quot;&gt;&lt;b&gt;_deffered_lighting&lt;/b&gt;&lt;/span&gt;" style="rounded=1;whiteSpace=wrap;html=1;fillColor=#dae8fc;strokeColor=#6c8ebf;" parent="1" vertex="1">
          <mxGeometry x="940" y="1900" width="210" height="60" as="geometry" />
        </mxCell>
        <mxCell id="yHAYQrB9C3ZelxVDnKD3-44" style="edgeStyle=none;curved=1;rounded=0;orthogonalLoop=1;jettySize=auto;html=1;exitX=1;exitY=0.5;exitDx=0;exitDy=0;fontSize=12;startSize=8;endSize=8;" parent="1" source="yHAYQrB9C3ZelxVDnKD3-22" target="yHAYQrB9C3ZelxVDnKD3-28" edge="1">
          <mxGeometry relative="1" as="geometry" />
        </mxCell>
        <mxCell id="yHAYQrB9C3ZelxVDnKD3-22" value="&lt;span style=&quot;font-size: 16px;&quot;&gt;&lt;b&gt;_particle&lt;/b&gt;&lt;/span&gt;" style="rounded=1;whiteSpace=wrap;html=1;fillColor=#dae8fc;strokeColor=#6c8ebf;" parent="1" vertex="1">
          <mxGeometry x="940" y="1813" width="210" height="60" as="geometry" />
        </mxCell>
        <mxCell id="yHAYQrB9C3ZelxVDnKD3-23" value="&lt;span style=&quot;font-size: 16px;&quot;&gt;&lt;b&gt;_mesh_gbuffer&lt;/b&gt;&lt;/span&gt;" style="rounded=1;whiteSpace=wrap;html=1;fillColor=#dae8fc;strokeColor=#6c8ebf;" parent="1" vertex="1">
          <mxGeometry x="1390" y="1380" width="210" height="60" as="geometry" />
        </mxCell>
        <mxCell id="yHAYQrB9C3ZelxVDnKD3-24" value="&lt;span style=&quot;font-size: 16px;&quot;&gt;&lt;b&gt;deffered_lighting&lt;/b&gt;&lt;/span&gt;" style="rounded=1;whiteSpace=wrap;html=1;fillColor=#dae8fc;strokeColor=#6c8ebf;" parent="1" vertex="1">
          <mxGeometry x="1390" y="1467" width="210" height="60" as="geometry" />
        </mxCell>
        <mxCell id="yHAYQrB9C3ZelxVDnKD3-25" value="&lt;span style=&quot;font-size: 16px;&quot;&gt;&lt;b&gt;mesh_lighting&lt;/b&gt;&lt;/span&gt;" style="rounded=1;whiteSpace=wrap;html=1;fillColor=#dae8fc;strokeColor=#6c8ebf;" parent="1" vertex="1">
          <mxGeometry x="1390" y="1553" width="210" height="60" as="geometry" />
        </mxCell>
        <mxCell id="yHAYQrB9C3ZelxVDnKD3-26" value="&lt;span style=&quot;font-size: 16px;&quot;&gt;&lt;b&gt;skybox&lt;/b&gt;&lt;/span&gt;" style="rounded=1;whiteSpace=wrap;html=1;fillColor=#dae8fc;strokeColor=#6c8ebf;" parent="1" vertex="1">
          <mxGeometry x="1390" y="1640" width="210" height="60" as="geometry" />
        </mxCell>
        <mxCell id="yHAYQrB9C3ZelxVDnKD3-27" value="&lt;span style=&quot;font-size: 16px;&quot;&gt;&lt;b&gt;axis&lt;/b&gt;&lt;/span&gt;" style="rounded=1;whiteSpace=wrap;html=1;fillColor=#dae8fc;strokeColor=#6c8ebf;" parent="1" vertex="1">
          <mxGeometry x="1390" y="1727" width="210" height="60" as="geometry" />
        </mxCell>
        <mxCell id="yHAYQrB9C3ZelxVDnKD3-28" value="&lt;span style=&quot;font-size: 16px;&quot;&gt;&lt;b&gt;_particle&lt;/b&gt;&lt;/span&gt;" style="rounded=1;whiteSpace=wrap;html=1;fillColor=#dae8fc;strokeColor=#6c8ebf;" parent="1" vertex="1">
          <mxGeometry x="1390" y="1813" width="210" height="60" as="geometry" />
        </mxCell>
        <mxCell id="yHAYQrB9C3ZelxVDnKD3-31" value="&lt;span style=&quot;font-size: 18px;&quot;&gt;DescriptorSet Layout&lt;/span&gt;" style="text;html=1;strokeColor=none;fillColor=none;align=left;verticalAlign=middle;whiteSpace=wrap;rounded=0;fontSize=18;" parent="1" vertex="1">
          <mxGeometry x="920" y="1320" width="177.5" height="30" as="geometry" />
        </mxCell>
        <mxCell id="yHAYQrB9C3ZelxVDnKD3-32" value="&lt;span style=&quot;font-size: 18px;&quot;&gt;Pipeline Layout&lt;/span&gt;" style="text;html=1;strokeColor=none;fillColor=none;align=left;verticalAlign=middle;whiteSpace=wrap;rounded=0;fontSize=18;" parent="1" vertex="1">
          <mxGeometry x="1370" y="1320" width="177.5" height="30" as="geometry" />
        </mxCell>
        <mxCell id="yHAYQrB9C3ZelxVDnKD3-47" value="Deffered" style="text;html=1;strokeColor=none;fillColor=none;align=left;verticalAlign=middle;whiteSpace=wrap;rounded=0;fontSize=18;" parent="1" vertex="1">
          <mxGeometry x="2360" y="242" width="177.5" height="30" as="geometry" />
        </mxCell>
        <mxCell id="pEqh-E6jFmeCIz5NGv_O-1" value="" style="rounded=0;whiteSpace=wrap;html=1;fontSize=16;fillColor=none;dashed=1;dashPattern=8 8;" parent="1" vertex="1">
          <mxGeometry x="2675" y="240" width="280" height="210" as="geometry" />
        </mxCell>
        <mxCell id="OIsqS4VPK4oWSXmHvmEe-8" value="Forward" style="text;html=1;strokeColor=none;fillColor=none;align=left;verticalAlign=middle;whiteSpace=wrap;rounded=0;fontSize=18;" parent="1" vertex="1">
          <mxGeometry x="2680" y="248" width="177.5" height="30" as="geometry" />
        </mxCell>
        <mxCell id="OIsqS4VPK4oWSXmHvmEe-14" style="edgeStyle=orthogonalEdgeStyle;rounded=0;orthogonalLoop=1;jettySize=auto;html=1;exitX=0.5;exitY=1;exitDx=0;exitDy=0;entryX=0.5;entryY=0;entryDx=0;entryDy=0;" parent="1" source="OIsqS4VPK4oWSXmHvmEe-9" target="OIsqS4VPK4oWSXmHvmEe-10" edge="1">
          <mxGeometry relative="1" as="geometry" />
        </mxCell>
        <mxCell id="OIsqS4VPK4oWSXmHvmEe-9" value="&lt;b style=&quot;border-color: var(--border-color); font-size: 16px;&quot;&gt;fxaa_pass&lt;/b&gt;" style="rounded=1;whiteSpace=wrap;html=1;fillColor=#d5e8d4;strokeColor=#82b366;" parent="1" vertex="1">
          <mxGeometry x="2540" y="847" width="220" height="60" as="geometry" />
        </mxCell>
        <mxCell id="OIsqS4VPK4oWSXmHvmEe-15" style="edgeStyle=orthogonalEdgeStyle;rounded=0;orthogonalLoop=1;jettySize=auto;html=1;exitX=0.5;exitY=1;exitDx=0;exitDy=0;entryX=0.5;entryY=0;entryDx=0;entryDy=0;" parent="1" source="OIsqS4VPK4oWSXmHvmEe-10" target="OIsqS4VPK4oWSXmHvmEe-11" edge="1">
          <mxGeometry relative="1" as="geometry" />
        </mxCell>
        <mxCell id="OIsqS4VPK4oWSXmHvmEe-10" value="&lt;b style=&quot;border-color: var(--border-color); font-size: 16px;&quot;&gt;drawAxis( )&lt;/b&gt;" style="rounded=1;whiteSpace=wrap;html=1;fillColor=#d5e8d4;strokeColor=#82b366;" parent="1" vertex="1">
          <mxGeometry x="2540" y="947" width="220" height="60" as="geometry" />
        </mxCell>
        <mxCell id="OIsqS4VPK4oWSXmHvmEe-16" style="edgeStyle=orthogonalEdgeStyle;rounded=0;orthogonalLoop=1;jettySize=auto;html=1;exitX=0.5;exitY=1;exitDx=0;exitDy=0;entryX=0.5;entryY=0;entryDx=0;entryDy=0;" parent="1" source="OIsqS4VPK4oWSXmHvmEe-11" target="OIsqS4VPK4oWSXmHvmEe-12" edge="1">
          <mxGeometry relative="1" as="geometry" />
        </mxCell>
        <mxCell id="OIsqS4VPK4oWSXmHvmEe-11" value="&lt;b style=&quot;border-color: var(--border-color); font-size: 16px;&quot;&gt;ui_pass&lt;/b&gt;" style="rounded=1;whiteSpace=wrap;html=1;fillColor=#d5e8d4;strokeColor=#82b366;" parent="1" vertex="1">
          <mxGeometry x="2540" y="1047" width="220" height="60" as="geometry" />
        </mxCell>
        <mxCell id="OIsqS4VPK4oWSXmHvmEe-12" value="&lt;b style=&quot;border-color: var(--border-color); font-size: 16px;&quot;&gt;combine_ui_pass&lt;/b&gt;" style="rounded=1;whiteSpace=wrap;html=1;fillColor=#d5e8d4;strokeColor=#82b366;" parent="1" vertex="1">
          <mxGeometry x="2540" y="1147" width="220" height="60" as="geometry" />
        </mxCell>
        <mxCell id="OIsqS4VPK4oWSXmHvmEe-28" style="edgeStyle=orthogonalEdgeStyle;rounded=0;orthogonalLoop=1;jettySize=auto;html=1;exitX=0.5;exitY=1;exitDx=0;exitDy=0;" parent="1" source="OIsqS4VPK4oWSXmHvmEe-17" target="OIsqS4VPK4oWSXmHvmEe-18" edge="1">
          <mxGeometry relative="1" as="geometry" />
        </mxCell>
        <mxCell id="OIsqS4VPK4oWSXmHvmEe-17" value="&lt;span style=&quot;font-size: 16px;&quot;&gt;&lt;b&gt;drawMeshLighting( )&lt;/b&gt;&lt;/span&gt;" style="rounded=1;whiteSpace=wrap;html=1;fillColor=#d5e8d4;strokeColor=#82b366;" parent="1" vertex="1">
          <mxGeometry x="2710" y="283" width="220" height="60" as="geometry" />
        </mxCell>
        <mxCell id="OIsqS4VPK4oWSXmHvmEe-29" style="edgeStyle=orthogonalEdgeStyle;rounded=0;orthogonalLoop=1;jettySize=auto;html=1;exitX=0.5;exitY=1;exitDx=0;exitDy=0;" parent="1" source="OIsqS4VPK4oWSXmHvmEe-18" edge="1">
          <mxGeometry relative="1" as="geometry">
            <mxPoint x="2650" y="510" as="targetPoint" />
          </mxGeometry>
        </mxCell>
        <mxCell id="OIsqS4VPK4oWSXmHvmEe-18" value="&lt;span style=&quot;font-size: 16px;&quot;&gt;&lt;b&gt;drawSkybox( )&lt;/b&gt;&lt;/span&gt;" style="rounded=1;whiteSpace=wrap;html=1;fillColor=#d5e8d4;strokeColor=#82b366;" parent="1" vertex="1">
          <mxGeometry x="2710" y="371" width="220" height="60" as="geometry" />
        </mxCell>
      </root>
    </mxGraphModel>
  </diagram>
</mxfile>
